# xmcd
#
# Track frame offsets:
#	150
#	13588
#	27653
#	40197
#	52112
#	64674
#	75272
#	89696
#	100576
#	115008
#	127887
#	141577
#	153063
#	166134
#	179430
#	191676
#	202280
#	214922
#	224403
#	236717
#	248788
#	259456
#	269230
#	279058
#	292014
#	303773
#	314728
#	326830
#	337611
#
# Disc length: 4662 seconds
# Revision: 0
# Processed by: cddbd v1.5.2PL0 Copyright (c) Steve Scherf et al.
# Submitted via: dBpowerAMP V12.0
#
DISCID=b812341d
DTITLE=Rosco Gordon - Just A Little Bit - Plus All The Singles As and Bs 1951-1961
DYEAR=2016
DGENRE=Blues
TTITLE0=Blues For My Baby
TTITLE1=Three Cent Love
TTITLE2=You Figure It Out
TTITLE3=Just In From Texas
TTITLE4=I'm In Love
TTITLE5=Tomorrow May Be Too Late
TTITLE6=We're All Loaded (Whiskey Made Me Drunk)
TTITLE7=Just Love Me Baby
TTITLE8=Weeping Blues
TTITLE9=The Chicken (Dance With You)
TTITLE10=Love For You Baby
TTITLE11=Bad Dream
TTITLE12=Keep On Doggin'
TTITLE13=Shoobie Oobie
TTITLE14=Cheese And Crackers
TTITLE15=Tummer Tee
TTITLE16=I've Loved And Lost
TTITLE17=Sally Jo
TTITLE18=Torro
TTITLE19=No More Doggin' [Vee-Jay version]
TTITLE20=A Fool In Love
TTITLE21=Goin' Home (Tomorrow)
TTITLE22=Just A Little Bit
TTITLE23=That's What You Do To Me
TTITLE24=Surely I Love You
TTITLE25=The Dilly Hop
TTITLE26=You'll Never Know (The Way I Feel)
TTITLE27=What Wouldn't I Do
TTITLE28=Let 'Em Try
EXTD=
EXTT0=
EXTT1=
EXTT2=
EXTT3=
EXTT4=
EXTT5=
EXTT6=
EXTT7=
EXTT8=
EXTT9=
EXTT10=
EXTT11=
EXTT12=
EXTT13=
EXTT14=
EXTT15=
EXTT16=
EXTT17=
EXTT18=
EXTT19=
EXTT20=
EXTT21=
EXTT22=
EXTT23=
EXTT24=
EXTT25=
EXTT26=
EXTT27=
EXTT28=
PLAYORDER=
